<?xml version="1.0" standalone="no"?><!DOCTYPE svg PUBLIC "-//W3C//DTD SVG 1.1//EN" "http://www.w3.org/Graphics/SVG/1.1/DTD/svg11.dtd"><svg t="1585540989366" class="icon" viewBox="0 0 1024 1024" version="1.1" xmlns="http://www.w3.org/2000/svg" p-id="2589" xmlns:xlink="http://www.w3.org/1999/xlink" width="128" height="128"><defs><style type="text/css"></style></defs><path d="M720.256 160a23.168 23.168 0 0 0-19.392 10.24c-0.32 0.32-0.608 0.992-0.928 1.632-46.368 77.536-75.04 112.192-124.064 112.192-52.96 0-129.696-40.512-278.176-110.944a22.56 22.56 0 0 0-10.08-2.304 23.712 23.712 0 0 0-21.056 13.248s0 0.32-0.32 0.64l-72.128 163.52c-5.44 11.584 0 25.344 11.584 30.464 31.744 15.072 94.88 44.928 151.936 72.512 90.048 43.52 164.8 60.8 227.36 60.8 184.416 0 262.08-150.464 307.584-222.72a23.04 23.04 0 0 0-7.68-31.776L733.216 163.84A23.776 23.776 0 0 0 720.256 160z m13.312 79.264l82.944 51.232C762.752 375.456 701.728 448 584.96 448c-57.696 0-124.8-18.304-199.488-54.432a17736.512 17736.512 0 0 0-116.8-55.808L307.84 248.928c5.472 2.624 10.816 5.216 16.064 7.68 123.328 58.976 191.232 91.456 251.872 91.456 73.696 0 116.608-45.184 157.76-108.8zM438.72 512c-184.448 0-262.048 151.2-307.328 222.88-6.72 10.88-3.2 25.376 7.68 32.128L291.2 860.48a23.232 23.232 0 0 0 32.064-7.68c46.176-77.76 74.72-112.448 124.096-112.448 52.928 0 129.6 40.448 278.752 111.104a23.104 23.104 0 0 0 31.136-10.88c0.32 0 0.32-0.352 0.32-0.672l72.48-163.84a23.36 23.36 0 0 0-11.84-30.464c-31.776-15.104-95.008-44.992-151.776-72.32C576.256 529.44 501.376 512 438.752 512z m0 64c57.728 0 124.96 18.496 200 55.008 40.128 19.296 83.392 39.84 116.608 55.616l-39.424 89.12a15110.4 15110.4 0 0 1-17.696-8.416c-122.816-58.656-190.464-90.944-250.88-90.944-73.792 0-116.576 44.928-157.376 108.256L207.36 733.888C261.152 648.832 322.08 576 438.72 576z" p-id="2590"></path></svg>