<?xml version="1.0" standalone="no"?><!DOCTYPE svg PUBLIC "-//W3C//DTD SVG 1.1//EN" "http://www.w3.org/Graphics/SVG/1.1/DTD/svg11.dtd"><svg t="1585542782310" class="icon" viewBox="0 0 1024 1024" version="1.1" xmlns="http://www.w3.org/2000/svg" p-id="4983" xmlns:xlink="http://www.w3.org/1999/xlink" width="128" height="128"><defs><style type="text/css"></style></defs><path d="M845.952 815.648c-54.144-41.44-1.792-161.312-76-235.52a126.016 126.016 0 0 0-84.128-41.6 265.6 265.6 0 0 1 34.336-105.408 281.6 281.6 0 0 0 32.608-128.384 240.768 240.768 0 1 0-481.536 0 281.6 281.6 0 0 0 32.608 128.384 265.6 265.6 0 0 1 34.336 105.408 126.016 126.016 0 0 0-84.128 41.6c-74.208 74.208-21.856 194.08-76 235.52-39.456 30.208-60 30.4-50.144 54.4 7.392 18.144 51.2 41.6 117.344-7.808 72.128-53.76 48.736-140.96 89.824-182.048a62.752 62.752 0 0 1 45.344-16c-10.912 49.216-5.888 91.712-18.88 152.128-19.456 90.432-78.432 114.24-38.592 139.936 25.056 16 88.928-21.248 128.832-107.616 26.176-56.64 24.608-88.512 60.224-122.592 35.616 34.08 34.048 65.984 60.224 122.592 39.904 86.4 103.776 123.744 128.832 107.616 39.84-25.6-19.2-49.472-38.592-139.936-12.992-60.416-7.968-102.912-18.88-152.128a62.752 62.752 0 0 1 45.344 16c41.088 41.088 17.696 128.288 89.824 182.048 66.176 49.344 109.92 25.952 117.344 7.808 9.856-24-10.656-24.192-50.144-54.4z" fill="" p-id="4984"></path><path d="M849.184 736c-0.352-12.32-1.28-23.232-2.56-33.312a59.488 59.488 0 0 0 74.24-2.912 48.992 48.992 0 0 0-13.024-78.304 17.824 17.824 0 0 1-7.904-25.248 24.128 24.128 0 0 1 31.744-4.736 93.152 93.152 0 0 1 35.584 137.216 116.512 116.512 0 0 1-92.192 52.48 21.12 21.12 0 0 1-23.008-16.832 154.496 154.496 0 0 1-2.88-28.352zM174.816 736c0.352-12.32 1.28-23.232 2.56-33.312a59.488 59.488 0 0 1-74.24-2.912 48.992 48.992 0 0 1 13.024-78.304 17.824 17.824 0 0 0 7.904-25.248 24.128 24.128 0 0 0-31.744-4.736 93.152 93.152 0 0 0-35.584 137.216 116.512 116.512 0 0 0 92.192 52.48 21.12 21.12 0 0 0 23.008-16.832 154.496 154.496 0 0 0 2.88-28.352z" fill="" p-id="4985"></path></svg>